<?xml version="1.0" encoding="utf-8"?>
<!-- Generator: Adobe Illustrator 26.3.1, SVG Export Plug-In . SVG Version: 6.00 Build 0)  -->
<svg version="1.1" id="Layer_1" xmlns="http://www.w3.org/2000/svg" xmlns:xlink="http://www.w3.org/1999/xlink" x="0px" y="0px"
	 viewBox="0 0 560 560" style="enable-background:new 0 0 560 560;" xml:space="preserve">
<style type="text/css">
	.st0{fill:#E6E7E8;stroke:#231F20;stroke-linecap:round;stroke-miterlimit:10;}
	.st1{fill:#662D91;}
	.st2{fill:#F15A24;}
	.st3{fill:#FF0000;}
	.st4{fill:#FBB03B;}
	.st5{fill:#FCEE21;}
	.st6{fill:none;stroke:#231F20;stroke-width:3;stroke-linecap:round;stroke-miterlimit:10;}
	.st7{fill:none;stroke:#231F20;stroke-linecap:round;stroke-miterlimit:10;}
</style>
<circle class="st0" cx="284.24" cy="261.2" r="118.56"/>
<g id="XMLID_1_">
	<g>
		<path d="M390.82,260.69c0,14.23-2.81,27.79-7.9,40.18l-77.7-81.33l-12.61,22.31v0.01l-12.2,21.59l-0.07-0.04
			c0.11-1.35,0.18-2.7,0.22-4.04c0.87-7.27,1.03-14.66,3.07-21.68c6.36-21.98,32.98-35.63,54.55-27.97
			c-1.71-6.14-6.95-11.15-13.16-12.59c-2.04-0.48-4.29-0.65-5.9-2c-1.64-1.39-2.17-3.65-3.14-5.57c-1.74-3.42-5.18-5.92-8.97-6.51
			c-2.66-0.42-5.5,0.03-7.98-1.03c-0.73-0.31-1.39-0.74-2.01-1.24c-1.36-1.08-2.51-2.48-3.79-3.68c-9.14-8.57-26.6-4.42-30.91,7.34
			c-0.4-0.4-0.83-0.75-1.28-1.07c-4.94-3.47-12.58-2.25-16.89,2.2c-4.69,4.85-5.76,12.38-4.2,18.94
			c-4.91-2.69-11.57-1.67-15.46,2.36c-3.9,4.02-4.68,10.71-1.82,15.53c12.36-2.4,25.69,0.65,35.79,8.18
			c9.47,7.08,15.97,18.01,17.73,29.7l-9.47-9.66v-0.01l-7.78-7.93l-72.2,57.48c-4.91-12.19-7.61-25.52-7.61-39.47
			c0-58.45,47.39-105.84,105.85-105.84C343.43,154.85,390.82,202.24,390.82,260.69z"/>
		<path class="st1" d="M292.61,273.39c-3.65,0-6.61,2.96-6.61,6.61s2.96,6.61,6.61,6.61c3.65,0,6.61-2.96,6.61-6.61
			S296.26,273.39,292.61,273.39z M305.22,219.54l77.7,81.33c-15.82,38.53-53.71,65.66-97.94,65.66c-44.51,0-82.6-27.46-98.24-66.37
			l72.2-57.48l7.78,7.93v0.01l9.47,9.66l3.81,3.89l0.41-0.72l12.2-21.59v-0.01L305.22,219.54z M307.81,251.89
			c-3.65,0-6.61,2.96-6.61,6.61c0,3.66,2.96,6.62,6.61,6.62s6.61-2.96,6.61-6.62C314.42,254.85,311.46,251.89,307.81,251.89z
			 M286.18,350.94c0-3.65-2.96-6.61-6.62-6.61c-3.65,0-6.61,2.96-6.61,6.61s2.96,6.61,6.61,6.61
			C283.22,357.55,286.18,354.59,286.18,350.94z M270.1,307.97c0-3.65-2.96-6.61-6.61-6.61c-3.65,0-6.61,2.96-6.61,6.61
			s2.96,6.61,6.61,6.61C267.14,314.58,270.1,311.62,270.1,307.97z"/>
		<path class="st2" d="M325.02,197.13c6.21,1.44,11.45,6.45,13.16,12.59c-21.57-7.66-48.19,5.99-54.55,27.97
			c-2.04,7.02-2.2,14.41-3.07,21.68c0.55-15.75-3.07-31.21-8.3-46.3c-0.14-5.15,2.55-10.02,5.62-14.19
			c5.06-6.86,11.39-12.78,18.58-17.35l0.56-0.75c0.62,0.5,1.28,0.93,2.01,1.24c2.48,1.06,5.32,0.61,7.98,1.03
			c3.79,0.59,7.23,3.09,8.97,6.51c0.97,1.92,1.5,4.18,3.14,5.57C320.73,196.48,322.98,196.65,325.02,197.13z"/>
		<path class="st3" d="M307.81,251.89c3.65,0,6.61,2.96,6.61,6.61c0,3.66-2.96,6.62-6.61,6.62s-6.61-2.96-6.61-6.62
			C301.2,254.85,304.16,251.89,307.81,251.89z"/>
		<circle class="st3" cx="292.61" cy="280" r="6.61"/>
		<path class="st4" d="M297.02,180.78l-0.56,0.75c-7.19,4.57-13.52,10.49-18.58,17.35c-3.07,4.17-5.76,9.04-5.62,14.19
			c-3.45-9.96-7.6-19.75-11.71-29.36l0.49-0.34c0.45,0.32,0.88,0.67,1.28,1.07c4.31-11.76,21.77-15.91,30.91-7.34
			C294.51,178.3,295.66,179.7,297.02,180.78z"/>
		<path class="st3" d="M279.56,344.33c3.66,0,6.62,2.96,6.62,6.61s-2.96,6.61-6.62,6.61c-3.65,0-6.61-2.96-6.61-6.61
			S275.91,344.33,279.56,344.33z"/>
		<path class="st5" d="M280.56,259.37c-0.04,1.34-0.11,2.69-0.22,4.04l0.07,0.04l-0.41,0.72l-3.81-3.89
			c-1.76-11.69-8.26-22.62-17.73-29.7c-10.1-7.53-23.43-10.58-35.79-8.18c-2.86-4.82-2.08-11.51,1.82-15.53
			c3.89-4.03,10.55-5.05,15.46-2.36c-1.56-6.56-0.49-14.09,4.2-18.94c4.31-4.45,11.95-5.67,16.89-2.2l-0.49,0.34
			c4.11,9.61,8.26,19.4,11.71,29.36C277.49,228.16,281.11,243.62,280.56,259.37z"/>
		<circle class="st3" cx="263.49" cy="307.97" r="6.61"/>
	</g>
	<g>
		<path class="st6" d="M186.74,300.16c-4.91-12.19-7.61-25.52-7.61-39.47c0-58.45,47.39-105.84,105.85-105.84
			c58.45,0,105.84,47.39,105.84,105.84c0,14.23-2.81,27.79-7.9,40.18c-15.82,38.53-53.71,65.66-97.94,65.66
			C240.47,366.53,202.38,339.07,186.74,300.16z"/>
		<line class="st6" x1="186.74" y1="300.16" x2="258.94" y2="242.68"/>
		<line class="st6" x1="266.72" y1="250.61" x2="258.94" y2="242.68"/>
		<polyline class="st6" points="280,264.17 276.19,260.28 266.72,250.62 		"/>
		<polyline class="st6" points="292.61,241.86 280.41,263.45 280,264.17 		"/>
		<line class="st6" x1="305.22" y1="219.54" x2="292.61" y2="241.85"/>
		<line class="st6" x1="382.92" y1="300.87" x2="305.22" y2="219.54"/>
		<polyline class="st6" points="266.72,250.61 266.72,250.62 264.73,299.7 		"/>
		<line class="st6" x1="280" y1="264.17" x2="280" y2="344.33"/>
		<polyline class="st6" points="292.61,241.85 292.61,241.86 292.61,273.39 		"/>
		<line class="st6" x1="307.81" y1="251.89" x2="305.22" y2="219.54"/>
		<path class="st7" d="M276.47,262.58c-0.07-0.77-0.17-1.53-0.28-2.3c-1.76-11.69-8.26-22.62-17.73-29.7
			c-10.1-7.53-23.43-10.58-35.79-8.18c-2.86-4.82-2.08-11.51,1.82-15.53c3.89-4.03,10.55-5.05,15.46-2.36
			c-1.56-6.56-0.49-14.09,4.2-18.94c4.31-4.45,11.95-5.67,16.89-2.2c0.45,0.32,0.88,0.67,1.28,1.07
			c4.31-11.76,21.77-15.91,30.91-7.34c1.28,1.2,2.43,2.6,3.79,3.68c0.62,0.5,1.28,0.93,2.01,1.24c2.48,1.06,5.32,0.61,7.98,1.03
			c3.79,0.59,7.23,3.09,8.97,6.51c0.97,1.92,1.5,4.18,3.14,5.57c1.61,1.35,3.86,1.52,5.9,2c6.21,1.44,11.45,6.45,13.16,12.59
			c-21.57-7.66-48.19,5.99-54.55,27.97c-2.04,7.02-2.2,14.41-3.07,21.68c-0.16,1.41-0.35,2.82-0.59,4.21"/>
		<path class="st7" d="M260.55,183.71c4.11,9.61,8.26,19.4,11.71,29.36c5.23,15.09,8.85,30.55,8.3,46.3
			c-0.04,1.34-0.11,2.69-0.22,4.04"/>
		<path class="st7" d="M272.29,213.73c-0.02-0.22-0.03-0.44-0.03-0.66c-0.14-5.15,2.55-10.02,5.62-14.19
			c5.06-6.86,11.39-12.78,18.58-17.35"/>
		<circle class="st7" cx="263.49" cy="307.97" r="6.61"/>
		<path class="st7" d="M286.18,350.94c0,3.65-2.96,6.61-6.62,6.61c-3.65,0-6.61-2.96-6.61-6.61s2.96-6.61,6.61-6.61
			C283.22,344.33,286.18,347.29,286.18,350.94z"/>
		<circle class="st7" cx="292.61" cy="280" r="6.61"/>
		<path class="st7" d="M314.42,258.5c0,3.66-2.96,6.62-6.61,6.62s-6.61-2.96-6.61-6.62c0-3.65,2.96-6.61,6.61-6.61
			S314.42,254.85,314.42,258.5z"/>
	</g>
</g>
</svg>
